<?xml version="1.0" standalone="no"?>
<!DOCTYPE svg PUBLIC "-//W3C//DTD SVG 20010904//EN"
 "http://www.w3.org/TR/2001/REC-SVG-20010904/DTD/svg10.dtd">
<svg version="1.0" xmlns="http://www.w3.org/2000/svg"
 width="1000.000000pt" height="1000.000000pt" viewBox="0 0 1000.000000 1000.000000"
 preserveAspectRatio="xMidYMid meet">
<metadata>
Created by potrace 1.11, written by Peter Selinger 2001-2013
</metadata>
<g transform="translate(0.000000,1000.000000) scale(0.100000,-0.100000)"
fill="#000000" stroke="none">
<path d="M5390 9855 c-25 -13 -65 -34 -90 -46 -25 -13 -47 -26 -50 -29 -3 -3
-52 -37 -110 -74 -58 -38 -107 -72 -108 -77 -2 -5 -8 -7 -13 -3 -5 3 -9 1 -9
-5 0 -5 -19 -23 -42 -39 -24 -16 -65 -50 -93 -75 -27 -25 -54 -43 -60 -40 -5
4 -7 3 -3 -1 6 -7 -26 -46 -37 -46 -3 0 -36 -32 -73 -72 -37 -39 -75 -79 -84
-89 -9 -10 -38 -44 -64 -76 -26 -32 -52 -57 -57 -55 -4 1 -6 -2 -2 -7 3 -6 -3
-19 -15 -31 -11 -11 -21 -23 -21 -27 -3 -17 -26 -42 -33 -36 -4 4 -4 0 0 -10
3 -10 1 -17 -5 -17 -6 0 -11 -6 -11 -14 0 -8 -4 -16 -8 -18 -5 -1 -26 -34 -47
-73 -21 -38 -43 -73 -48 -76 -5 -3 -9 -10 -8 -15 0 -5 -16 -41 -35 -81 -18
-39 -34 -77 -34 -83 0 -6 -5 -8 -12 -4 -6 4 -8 3 -5 -3 6 -9 -17 -83 -50 -163
-3 -8 -8 -24 -10 -34 -2 -11 -8 -25 -13 -31 -5 -7 -7 -15 -4 -18 3 -3 2 -12
-2 -19 -5 -7 -9 -22 -11 -33 -1 -11 -4 -29 -7 -40 -2 -11 -5 -24 -5 -28 -1 -5
-5 -6 -10 -3 -4 3 -7 -5 -6 -19 2 -13 -1 -41 -6 -62 -5 -21 -12 -63 -15 -93
-4 -30 -11 -61 -16 -67 -7 -9 -7 -13 0 -13 12 0 4 -38 -12 -59 -8 -11 -8 -13
2 -7 12 7 17 -6 6 -17 -4 -4 -7 -28 -8 -54 -1 -27 -5 -53 -9 -60 -4 -6 -3 -14
2 -17 6 -4 6 -18 1 -36 -5 -19 -5 -30 1 -30 6 0 6 -7 -1 -19 -6 -12 -6 -22 -1
-26 6 -3 6 -17 1 -34 -4 -15 -4 -34 0 -42 5 -7 5 -20 1 -28 -7 -15 -7 -34 -1
-46 6 -13 6 -32 -2 -47 -5 -10 -5 -18 0 -18 4 0 8 -10 9 -22 4 -110 11 -187
17 -196 4 -7 2 -12 -6 -12 -9 0 -9 -3 2 -10 8 -5 11 -10 6 -10 -5 0 -3 -7 4
-15 7 -8 8 -15 3 -15 -5 0 -9 -9 -9 -20 0 -11 4 -20 9 -20 5 0 7 -11 5 -25 -3
-14 -2 -25 2 -25 5 0 7 -14 6 -31 -1 -16 1 -32 5 -35 4 -2 6 -13 4 -24 -2 -11
0 -20 4 -20 4 0 8 -6 8 -12 1 -30 12 -99 17 -107 3 -4 8 -26 12 -47 3 -22 8
-52 10 -69 3 -16 6 -38 7 -47 1 -9 5 -14 9 -12 4 3 9 -6 10 -20 2 -47 3 -51
10 -56 4 -3 9 -21 10 -40 2 -19 6 -37 10 -40 4 -3 9 -17 12 -30 5 -23 8 -37
18 -80 1 -8 6 -18 11 -21 4 -3 9 -20 10 -37 1 -18 6 -32 11 -32 4 0 6 -7 2
-15 -3 -8 -1 -15 4 -15 5 0 7 -9 5 -20 -3 -13 0 -18 7 -14 7 5 9 0 6 -14 -4
-12 -2 -20 3 -16 8 4 12 -17 8 -42 0 -4 3 -10 8 -13 9 -6 37 -86 38 -106 0 -5
6 -16 13 -23 12 -13 16 -34 13 -61 -2 -7 2 -10 8 -6 10 5 16 -22 12 -47 0 -5
4 -8 9 -8 6 0 10 -8 10 -18 0 -10 6 -24 12 -30 10 -10 10 -15 0 -21 -11 -7
-11 -9 2 -14 9 -4 13 -14 11 -27 -2 -11 0 -20 5 -20 4 0 7 -11 5 -25 -1 -14 1
-25 5 -25 4 0 8 -12 8 -27 2 -45 7 -82 14 -88 3 -4 2 -20 -2 -36 -5 -16 -6
-27 -2 -25 4 2 7 -22 7 -55 0 -32 -2 -59 -5 -59 -3 0 -5 -17 -4 -37 1 -31 -12
-99 -30 -158 -20 -70 -31 -95 -38 -95 -5 0 -6 -4 -3 -10 3 -6 1 -10 -5 -10 -6
0 -9 -4 -5 -10 3 -5 -2 -18 -12 -28 -10 -10 -19 -25 -21 -33 -2 -7 -9 -17 -15
-21 -7 -4 -9 -8 -4 -8 9 0 -34 -51 -101 -118 -55 -54 -172 -139 -172 -125 0 4
-4 3 -8 -3 -9 -14 -79 -49 -152 -75 -71 -25 -179 -49 -254 -55 -32 -2 -62 -7
-67 -10 -5 -3 -9 1 -9 8 0 8 -3 9 -8 3 -8 -12 -22 -13 -39 -2 -7 5 -13 5 -13
0 0 -16 -126 -2 -242 27 -81 20 -238 87 -238 101 0 5 -7 9 -15 9 -7 0 -19 8
-24 17 -6 10 -11 14 -11 9 0 -4 -17 7 -37 25 -21 18 -37 36 -36 40 2 4 -6 11
-17 14 -11 4 -20 12 -20 20 0 7 -4 15 -8 17 -17 6 -74 101 -76 123 0 13 -5 21
-10 18 -5 -3 -7 0 -4 8 3 8 -2 20 -10 28 -7 8 -12 25 -9 38 2 12 1 23 -3 23
-4 0 -8 12 -8 28 -1 15 -3 46 -5 70 -3 27 -1 42 7 42 7 0 6 3 -2 9 -18 11 -18
12 -4 38 9 16 9 24 1 29 -9 5 -6 11 6 21 11 7 14 13 8 13 -15 0 -11 23 7 46 9
11 10 15 3 10 -8 -4 -13 -1 -13 9 0 9 4 14 9 11 4 -3 8 2 8 12 0 36 3 43 16
36 9 -5 9 -4 1 5 -9 10 -6 27 11 72 19 48 21 59 9 59 -9 0 -12 -5 -8 -11 3 -6
2 -14 -3 -18 -12 -8 -123 -234 -123 -250 0 -7 -5 -9 -10 -6 -6 4 -10 3 -9 -2
4 -24 -2 -43 -13 -37 -7 4 -8 3 -4 -4 4 -6 -1 -26 -11 -44 -9 -18 -18 -35 -18
-38 -3 -11 -46 -106 -55 -122 -5 -10 -10 -23 -10 -28 0 -6 -10 -32 -22 -58
-12 -26 -23 -49 -23 -52 -2 -5 -22 -55 -32 -80 -8 -19 -8 -19 -17 -53 -5 -15
-12 -27 -18 -27 -5 0 -7 -4 -4 -8 6 -10 -60 -203 -67 -195 -4 3 -5 -4 -2 -16
2 -11 -1 -21 -6 -21 -6 0 -7 -4 -4 -10 3 -5 3 -16 -2 -22 -8 -13 -13 -33 -15
-55 -1 -7 -6 -13 -11 -13 -6 0 -8 -3 -5 -6 4 -3 2 -20 -3 -37 -6 -18 -12 -39
-14 -47 -2 -8 -8 -27 -14 -43 -6 -15 -8 -27 -5 -27 4 0 2 -6 -3 -12 -6 -7 -9
-21 -8 -31 2 -9 -1 -17 -6 -17 -5 0 -8 -3 -7 -7 4 -14 -24 -143 -31 -143 -3 0
-7 -12 -8 -28 -3 -54 -8 -92 -13 -92 -3 0 -6 -11 -7 -25 -1 -14 -3 -36 -4 -50
-1 -14 -5 -25 -9 -25 -4 0 -8 -10 -7 -22 1 -45 -7 -118 -12 -118 -3 0 -7 -30
-9 -67 -1 -37 -7 -72 -13 -79 -7 -8 -7 -14 1 -19 6 -3 7 -12 3 -18 -4 -6 -6
-31 -4 -55 2 -32 -1 -42 -9 -37 -9 5 -9 1 0 -16 7 -13 9 -24 4 -26 -11 -4 -10
-65 1 -83 5 -8 4 -15 -1 -17 -9 -3 -9 -20 1 -198 3 -60 7 -129 8 -152 1 -24 5
-43 8 -43 3 0 5 -14 4 -30 -1 -17 2 -33 8 -37 5 -3 3 -9 -4 -14 -8 -5 -9 -9
-3 -9 11 0 14 -19 16 -77 0 -13 4 -23 9 -23 5 0 8 -3 8 -7 -1 -5 -1 -10 0 -13
3 -7 12 -72 14 -97 1 -13 6 -23 10 -23 5 0 7 -6 5 -12 -3 -7 1 -23 8 -36 7
-14 10 -31 7 -38 -3 -8 0 -14 7 -14 7 0 10 -7 6 -15 -3 -8 -1 -15 5 -15 6 0 9
-6 6 -12 -2 -7 2 -25 9 -39 7 -15 10 -29 7 -33 -4 -3 -1 -6 6 -6 7 0 9 -4 6
-10 -3 -5 -2 -10 4 -10 5 0 8 -11 7 -25 -2 -13 1 -22 5 -19 8 5 11 -3 8 -22 0
-4 4 -10 11 -14 6 -4 12 -17 13 -28 1 -12 5 -22 10 -22 5 0 6 -7 3 -16 -3 -8
-2 -13 2 -10 9 6 46 -63 38 -71 -2 -3 5 -14 16 -25 11 -11 17 -26 14 -34 -3
-9 -1 -12 4 -9 6 3 10 -1 10 -9 0 -9 5 -16 11 -16 5 0 7 -4 4 -10 -3 -5 -1
-10 6 -10 7 0 10 -3 6 -6 -3 -4 4 -15 16 -26 12 -11 15 -17 7 -13 -8 4 -4 -3
9 -14 13 -12 20 -21 16 -21 -4 0 -2 -6 4 -13 6 -8 8 -17 4 -20 -3 -4 1 -7 11
-7 9 0 15 -4 11 -9 -3 -6 3 -14 12 -20 10 -6 15 -11 11 -11 -5 0 1 -9 12 -20
12 -12 18 -26 14 -32 -4 -7 -3 -8 4 -4 7 4 17 -3 24 -18 6 -14 18 -26 26 -26
9 0 13 -3 9 -6 -5 -5 15 -33 51 -70 6 -7 12 -18 12 -24 0 -6 4 -8 10 -5 10 6
15 -9 10 -30 -1 -5 2 -7 5 -3 13 12 47 -12 41 -29 -4 -11 -2 -13 9 -10 8 4 17
2 20 -3 3 -4 -1 -11 -7 -13 -8 -3 -6 -6 4 -6 22 -1 69 -41 62 -53 -3 -4 2 -8
10 -8 9 0 16 -5 16 -11 0 -5 5 -7 12 -3 8 5 9 2 5 -10 -4 -10 -3 -15 3 -11 10
6 24 -4 88 -65 14 -14 27 -24 29 -22 9 7 23 0 23 -14 0 -8 4 -13 8 -10 5 3 14
-4 22 -14 8 -10 17 -17 21 -14 4 2 13 -1 21 -8 7 -7 25 -19 40 -27 15 -8 25
-18 22 -23 -3 -4 5 -8 18 -8 13 0 29 -9 36 -20 7 -11 19 -20 27 -20 23 0 126
-66 117 -76 -4 -4 1 -2 11 5 11 9 17 10 17 2 0 -6 7 -11 16 -11 8 0 13 -4 10
-8 -2 -4 5 -9 17 -9 12 -1 23 -7 25 -12 2 -5 10 -7 18 -4 8 3 14 -1 14 -8 0
-7 3 -9 7 -6 3 4 12 -1 19 -11 11 -14 13 -14 14 -2 1 13 2 13 13 0 11 -14 21
-18 57 -25 8 -1 14 -8 12 -15 -1 -6 2 -9 8 -5 13 8 80 -16 80 -30 0 -5 5 -3
10 5 5 8 10 10 10 4 0 -14 41 -29 88 -32 13 -1 21 -6 18 -10 -2 -4 7 -8 22 -9
42 -2 67 -10 65 -21 -1 -5 7 -8 17 -5 11 3 28 -1 37 -8 14 -12 16 -12 9 1 -4
8 -1 7 7 -3 11 -13 16 -15 19 -5 4 10 8 10 19 2 8 -6 22 -10 32 -9 9 2 17 -1
17 -6 0 -4 7 -5 17 -2 9 4 14 2 10 -3 -3 -6 9 -8 30 -6 28 4 34 2 28 -9 -5 -8
-5 -11 0 -7 4 4 17 3 28 -3 13 -7 17 -8 13 -1 -4 7 3 8 21 3 16 -4 34 -6 41
-4 6 3 12 0 12 -5 0 -6 8 -9 18 -7 9 1 22 -2 29 -7 7 -6 14 -5 18 2 5 8 13 6
26 -6 15 -14 21 -14 34 -4 12 10 15 10 15 0 0 -10 3 -10 15 0 10 8 15 9 15 2
0 -7 7 -9 17 -5 12 5 14 3 8 -8 -6 -11 -5 -12 5 -2 9 9 19 9 33 2 14 -8 18 -8
13 0 -4 6 -2 11 3 11 6 0 11 -4 11 -9 0 -4 12 -6 26 -3 19 3 25 1 20 -7 -4 -6
-2 -11 3 -11 6 0 11 4 11 9 0 5 14 9 30 9 17 -1 30 -5 30 -11 0 -5 7 -4 15 3
11 9 15 9 15 1 0 -9 5 -9 20 -1 15 8 20 8 20 -1 0 -8 4 -8 15 1 12 10 15 10
15 -1 0 -11 2 -11 10 1 8 12 10 12 10 1 0 -11 3 -11 16 0 13 10 17 10 24 -1 7
-11 11 -11 24 -1 11 10 16 10 16 2 0 -8 5 -9 19 -1 14 7 21 6 24 -3 4 -9 8 -8
17 3 9 11 13 12 17 3 2 -7 9 -13 14 -13 6 0 7 5 3 11 -4 7 1 7 16 -1 15 -8 20
-8 16 -1 -8 12 21 11 40 -2 7 -4 17 0 24 8 8 10 17 12 24 6 7 -6 17 -6 26 -1
20 13 33 12 25 0 -3 -5 -1 -10 4 -10 6 0 11 5 11 11 0 8 6 7 17 -2 14 -12 16
-12 8 0 -6 11 -2 13 19 9 15 -3 26 -1 26 6 0 6 5 4 10 -4 9 -13 10 -13 10 0 0
12 2 13 9 1 5 -7 10 -9 12 -4 2 6 21 13 42 16 27 4 36 3 30 -6 -4 -7 4 -4 19
5 20 13 28 14 38 5 10 -9 11 -9 6 0 -5 9 -1 13 11 13 11 0 25 -6 32 -13 10
-10 11 -9 6 3 -4 12 3 15 32 15 21 -1 44 3 50 8 7 5 20 7 28 3 11 -4 14 -2 9
6 -5 7 -2 9 8 6 8 -4 21 -2 29 2 8 5 19 4 27 -2 10 -9 12 -8 10 2 -2 10 6 14
25 14 15 -1 27 4 27 10 0 6 5 4 10 -4 8 -12 10 -12 10 -1 0 8 7 11 20 8 11 -3
18 -1 14 4 -4 8 25 14 49 10 4 0 7 4 7 9 0 7 7 7 21 -1 12 -6 19 -7 15 -1 -7
11 21 25 35 16 5 -3 9 0 9 7 0 7 3 9 7 6 3 -4 13 -1 21 6 13 9 14 9 8 0 -4 -7
-3 -13 2 -13 6 0 12 6 15 14 3 8 16 12 31 11 14 -2 24 1 20 6 -3 5 1 10 8 11
23 2 32 5 50 13 10 4 29 8 42 9 13 0 22 4 19 9 -4 6 20 11 40 8 4 0 7 3 7 7 0
11 68 35 79 27 5 -3 13 0 17 6 5 8 3 9 -6 4 -9 -6 -11 -4 -6 4 5 7 14 10 22 7
8 -3 14 -1 14 5 0 6 4 8 9 4 5 -3 13 0 16 6 4 5 14 8 22 5 9 -4 11 -2 7 6 -5
8 -2 9 10 5 10 -4 15 -3 11 3 -5 9 1 12 21 9 4 0 10 4 14 11 4 6 16 12 28 13
11 0 19 4 16 8 -4 7 34 22 49 20 4 -1 7 4 7 10 0 5 4 8 9 4 5 -3 12 -1 15 4 9
15 78 52 71 39 -4 -7 0 -5 9 6 8 10 19 15 25 12 5 -4 13 -1 17 5 5 8 3 9 -6 4
-9 -6 -11 -4 -6 4 5 7 14 10 21 7 7 -2 16 2 19 10 3 8 19 20 36 25 16 6 30 15
30 21 0 5 5 6 10 3 6 -3 13 1 16 10 4 9 13 14 20 11 8 -3 13 0 11 7 -1 7 6 11
16 9 10 -2 21 6 27 20 5 13 9 19 9 15 1 -4 11 1 23 13 12 11 31 20 42 20 18 0
19 2 6 11 -12 9 -11 10 7 6 13 -3 26 0 30 5 4 7 1 8 -7 3 -8 -5 -11 -3 -8 6 3
8 12 13 21 13 9 -1 14 2 12 7 -7 11 30 30 40 21 5 -4 5 -2 2 4 -8 15 18 38 33
29 6 -4 9 -3 8 2 -2 5 22 34 53 66 45 46 58 54 69 44 10 -9 11 -9 6 1 -5 7 14
33 48 66 30 30 52 56 50 59 -3 3 4 8 15 12 12 3 19 10 16 15 -3 5 4 14 15 20
11 6 18 15 15 21 -4 5 3 13 15 17 12 4 22 12 23 17 1 6 6 9 11 7 5 -2 6 4 3
12 -4 9 5 24 22 38 15 13 30 31 34 41 4 10 11 15 17 12 5 -3 7 0 5 8 -3 7 5
25 19 40 14 15 22 27 19 27 -3 0 2 9 12 20 10 11 21 18 25 15 3 -2 6 6 6 18
-1 12 4 21 11 20 6 -1 10 5 9 14 -3 17 3 26 37 64 9 10 14 19 11 19 -3 0 3 15
14 33 12 17 21 37 21 42 1 6 7 17 14 25 7 8 13 17 13 20 4 23 17 49 23 46 4
-3 8 7 9 22 1 15 6 28 12 30 5 2 6 10 3 18 -3 8 0 14 6 14 6 0 10 3 9 8 -4 14
13 52 21 47 5 -2 7 7 5 20 -1 14 2 25 7 25 5 0 8 3 8 8 -4 22 2 53 9 48 4 -2
9 5 9 17 3 39 13 68 22 63 4 -3 6 6 3 21 -4 19 -2 24 8 18 8 -5 11 -4 7 2 -8
13 13 123 23 123 4 0 6 11 5 25 -2 14 2 25 8 25 9 0 9 2 0 8 -7 5 -9 13 -3 21
4 8 6 20 3 28 -3 7 -1 13 5 13 5 0 7 11 4 25 -2 14 0 31 5 38 5 6 8 27 8 44
-1 18 1 33 4 33 11 0 18 413 7 453 -5 20 -3 27 5 22 8 -5 8 -2 1 11 -5 11 -9
30 -8 44 1 14 -1 35 -6 48 -5 14 -4 22 3 22 8 0 8 4 1 13 -6 6 -9 27 -8 45 1
18 -1 35 -6 38 -4 3 -7 15 -7 27 0 25 -7 81 -16 117 -4 14 -8 39 -9 55 -2 17
-6 37 -9 45 -8 18 -18 66 -22 102 -2 14 -7 32 -11 40 -4 7 -9 19 -10 28 -1 8
-5 26 -9 40 -4 14 -9 36 -12 50 -3 14 -12 40 -20 58 -8 19 -13 36 -10 39 3 2
-1 16 -8 30 -8 15 -12 30 -9 35 3 4 0 8 -7 8 -6 0 -9 8 -6 20 3 11 2 18 -3 15
-7 -4 -23 48 -24 80 -1 6 -7 16 -14 23 -7 8 -10 17 -7 22 3 5 1 10 -4 12 -5 1
-11 14 -13 28 -1 14 -9 31 -16 39 -7 7 -11 20 -8 27 3 8 1 14 -5 14 -6 0 -8 8
-5 17 4 10 4 14 0 10 -9 -9 -55 103 -47 116 3 6 1 7 -5 3 -7 -4 -12 -1 -12 6
0 13 -30 82 -66 151 -8 16 -12 33 -8 38 3 5 1 9 -5 9 -9 0 -27 40 -22 49 2 2
-1 7 -6 10 -18 12 -74 142 -67 154 4 6 4 9 -1 5 -9 -9 -45 45 -45 67 0 8 -4
15 -8 15 -10 0 -38 70 -34 84 2 6 0 8 -4 4 -8 -9 -54 73 -47 85 2 4 0 7 -5 7
-5 0 -26 35 -48 78 -21 42 -41 79 -44 82 -5 5 -23 37 -72 130 -13 25 -32 57
-42 72 -10 16 -16 35 -12 43 3 9 2 13 -4 10 -5 -3 -16 8 -25 25 -8 16 -12 30
-8 30 5 0 0 5 -9 11 -10 5 -18 19 -18 29 0 11 -5 20 -11 20 -6 0 -9 6 -6 13 2
6 -3 17 -10 22 -8 6 -15 17 -17 25 -2 8 -19 49 -38 90 -38 81 -53 121 -50 133
1 4 -3 7 -9 7 -6 0 -9 7 -5 15 3 8 2 15 -3 15 -6 0 -32 63 -37 90 0 3 -4 13
-9 23 -4 10 -5 20 -2 24 3 3 0 12 -8 20 -8 8 -16 25 -16 39 -2 26 -3 30 -11
54 -14 38 -28 100 -28 123 0 14 -5 29 -11 33 -8 4 -7 9 2 15 10 6 11 9 2 9 -8
0 -13 13 -13 29 0 17 -5 33 -10 36 -7 4 -7 13 0 26 6 11 7 19 1 19 -5 0 -8 14
-7 31 1 16 -1 32 -6 35 -4 3 -6 18 -4 34 2 17 0 30 -4 30 -4 0 -8 15 -8 33 0
17 -1 34 -2 37 -1 3 -3 21 -5 40 -2 19 -5 47 -8 63 -2 15 0 30 5 33 5 4 5 10
0 17 -5 7 -9 27 -10 45 0 17 -1 33 -2 35 0 1 -2 46 -4 99 -1 54 -5 101 -9 104
-3 3 -2 16 3 29 5 14 5 26 -3 34 -7 7 -7 11 -1 11 6 0 11 7 11 15 0 8 -4 15
-9 15 -5 0 -4 9 2 19 7 13 7 22 0 26 -5 3 -10 11 -10 16 0 6 5 7 12 3 7 -5 8
-3 3 7 -13 20 -14 93 -1 101 8 5 7 11 -2 20 -6 6 -12 21 -12 32 0 18 -1 18
-18 3 -10 -10 -22 -14 -26 -10 -4 5 -6 4 -5 -2 2 -5 -38 -52 -89 -103 -51 -51
-92 -97 -92 -102 0 -5 -9 -12 -20 -15 -11 -4 -18 -10 -15 -15 3 -5 -3 -15 -15
-22 -11 -7 -20 -16 -20 -20 0 -10 -69 -101 -82 -109 -5 -3 -10 -10 -10 -15 -1
-21 -11 -33 -21 -27 -5 3 -7 1 -4 -4 4 -6 -4 -26 -17 -46 -13 -19 -27 -44 -31
-56 -3 -12 -10 -19 -14 -17 -4 3 -8 0 -8 -7 0 -7 -13 -39 -29 -72 -16 -33 -29
-62 -29 -65 -3 -20 -31 -80 -37 -80 -4 0 -7 -3 -6 -7 4 -17 -14 -73 -23 -73
-6 0 -7 -4 -4 -10 3 -5 -3 -31 -14 -56 -12 -26 -21 -52 -21 -59 0 -6 -9 -22
-20 -35 -17 -20 -24 -22 -45 -12 -14 6 -25 16 -25 22 0 6 -4 8 -10 5 -5 -3
-10 -3 -10 2 0 4 -18 28 -41 53 -43 49 -71 94 -64 104 3 3 2 4 -2 1 -9 -7 -43
46 -37 57 3 4 1 8 -4 8 -10 0 -36 53 -32 66 1 4 -2 10 -7 13 -15 11 -53 93
-47 102 3 5 1 9 -5 9 -9 0 -76 172 -76 195 0 6 -7 15 -15 22 -13 11 -13 12 0
13 9 0 11 3 5 8 -6 4 -17 27 -25 52 -7 25 -17 50 -22 56 -4 6 -2 16 5 24 9 10
9 11 0 6 -8 -4 -13 -1 -13 8 0 26 -1 30 -12 44 -6 6 -8 12 -4 12 3 0 -1 17 -9
38 -8 20 -16 51 -19 67 -2 17 -5 30 -6 30 -1 0 -3 9 -5 20 -2 11 -10 47 -18
80 -8 33 -13 70 -12 82 1 12 -3 19 -8 16 -6 -4 -8 3 -5 15 4 12 3 24 -1 27 -5
2 -9 17 -9 32 -1 15 -4 42 -7 58 -3 17 -7 50 -10 75 -2 25 -7 56 -10 70 -6 27
-12 97 -20 230 -3 47 -7 102 -8 122 -2 22 1 34 6 31 6 -4 7 -1 2 7 -11 19 -13
60 -2 60 4 0 5 5 1 12 -8 13 -12 68 -4 68 3 0 5 38 5 85 0 47 2 85 5 85 3 0 4
16 2 36 -3 20 -1 34 4 31 5 -3 10 14 10 36 3 71 14 161 22 167 7 5 9 14 14 73
1 15 6 27 10 27 4 0 7 3 6 8 -5 18 14 102 23 102 6 0 7 5 4 10 -3 6 -3 16 2
23 4 6 8 17 9 22 0 6 2 16 2 23 1 7 6 11 10 8 5 -3 8 5 7 17 -1 12 2 28 8 35
18 23 2 22 -43 -3z m639 -3307 c3 -104 6 -126 12 -122 4 2 9 -5 12 -16 3 -13
1 -18 -6 -13 -7 4 -6 -1 2 -10 7 -9 11 -24 7 -32 -3 -9 -2 -13 4 -10 9 5 14
-16 13 -52 -1 -7 2 -11 6 -8 8 4 36 -59 32 -71 -2 -4 1 -10 6 -13 13 -10 33
-49 33 -66 0 -8 5 -15 10 -15 6 0 10 -9 10 -19 0 -11 5 -21 10 -23 6 -2 12
-13 13 -25 0 -12 5 -19 9 -17 4 3 8 -2 8 -10 0 -9 5 -16 11 -16 5 0 8 -4 5 -9
-3 -5 1 -14 9 -21 8 -7 15 -21 15 -32 0 -10 5 -16 10 -13 6 3 10 -3 10 -15 0
-12 5 -18 10 -15 6 3 10 -3 10 -14 0 -12 3 -21 8 -21 11 0 43 -61 36 -71 -3
-5 3 -9 12 -9 10 0 14 -3 11 -6 -4 -4 3 -15 15 -25 14 -13 16 -19 7 -19 -8 0
-4 -6 9 -16 12 -8 22 -21 22 -28 0 -8 7 -19 15 -26 9 -7 14 -19 11 -27 -3 -8
-2 -12 2 -10 4 3 13 -1 20 -9 7 -8 10 -14 6 -14 -4 0 1 -9 10 -19 10 -11 15
-25 10 -32 -4 -7 -3 -10 4 -5 14 8 35 -30 26 -47 -4 -6 -4 -9 1 -5 7 7 35 -14
35 -27 0 -4 9 -18 20 -32 11 -14 18 -29 15 -33 -3 -4 2 -11 11 -14 8 -3 12
-10 9 -16 -3 -5 -1 -10 5 -10 6 0 8 -4 5 -10 -3 -5 -2 -10 3 -10 11 0 55 -87
55 -107 0 -7 4 -13 7 -13 9 0 36 -61 32 -72 -1 -5 2 -8 7 -8 5 0 16 -20 24
-45 12 -33 13 -45 4 -45 -7 0 -6 -4 3 -10 8 -5 11 -10 5 -10 -5 0 -5 -4 2 -8
6 -4 14 -36 18 -71 5 -50 4 -61 -7 -55 -10 6 -10 4 1 -9 11 -14 11 -17 0 -17
-12 0 -12 -2 0 -9 9 -6 10 -11 2 -15 -6 -4 -9 -11 -7 -15 7 -10 -49 -93 -57
-84 -4 3 -7 0 -7 -8 0 -18 -67 -62 -82 -53 -7 4 -8 3 -4 -4 7 -11 3 -14 -26
-16 -7 -1 -19 -7 -27 -14 -8 -8 -22 -11 -32 -9 -10 3 -19 1 -21 -4 -2 -4 -16
-10 -33 -13 -16 -3 -41 -8 -55 -11 -74 -16 -200 -22 -217 -12 -7 5 -13 4 -13
-1 0 -12 -148 14 -166 29 -8 6 -14 8 -14 4 0 -13 -114 57 -153 94 -37 35 -104
142 -112 178 -2 10 -13 44 -24 76 -11 32 -16 55 -12 53 5 -3 3 10 -4 30 -16
48 -18 346 -2 356 9 6 8 8 -1 8 -8 0 -10 5 -5 13 7 11 9 32 12 100 1 19 5 26
13 21 7 -5 8 -3 2 7 -12 20 -14 39 -4 39 5 0 7 9 5 20 -2 11 -1 20 3 20 4 0 8
10 9 23 5 74 7 87 14 87 5 0 6 7 3 15 -4 8 -2 15 3 15 5 0 9 10 8 23 -1 12 0
26 3 32 4 5 7 16 9 25 8 42 11 66 12 78 1 7 5 11 9 8 5 -3 8 8 7 24 -1 17 2
30 7 30 4 0 7 3 7 8 -4 21 2 32 14 26 9 -5 9 -4 1 5 -12 13 -8 51 5 51 4 0 8
8 9 18 1 9 4 26 6 37 2 11 5 24 5 28 1 5 5 6 10 3 5 -4 7 3 4 14 -3 11 -1 26
4 33 11 13 27 67 25 80 -1 4 3 7 9 7 5 0 8 4 4 9 -3 5 -1 12 5 16 6 4 8 11 5
16 -4 5 -2 9 4 9 6 0 8 6 5 14 -3 8 0 17 5 21 6 3 9 11 6 16 -4 5 2 9 12 9 15
0 16 2 3 10 -13 8 -13 11 -1 19 7 5 10 14 7 20 -4 6 -2 11 3 11 6 0 11 9 11
21 0 13 4 18 12 13 6 -4 8 -3 5 3 -7 11 13 73 23 73 4 0 7 -28 9 -62z m-208
-2678 c30 -30 53 -58 51 -63 -1 -5 2 -6 8 -2 5 3 10 1 10 -6 0 -7 3 -10 6 -7
9 9 56 -40 49 -51 -3 -7 0 -8 9 -5 9 4 18 -1 22 -10 3 -9 11 -16 18 -16 6 0
18 -9 26 -19 7 -11 17 -18 22 -15 4 3 8 -2 8 -11 0 -9 5 -13 10 -10 6 3 10 2
10 -3 0 -5 12 -15 28 -23 35 -18 53 -35 45 -43 -4 -3 1 -6 11 -6 9 0 19 -7 22
-15 4 -8 10 -12 15 -9 5 3 12 -2 15 -10 3 -9 12 -16 20 -16 7 0 18 -9 24 -20
6 -11 17 -20 25 -20 8 0 20 -9 27 -20 7 -11 18 -20 25 -20 6 0 21 -12 32 -26
12 -15 21 -23 21 -19 0 5 8 -2 19 -13 10 -12 22 -22 26 -22 8 0 13 -4 68 -54
15 -14 33 -26 39 -26 5 0 7 -7 4 -16 -3 -9 -2 -12 5 -9 5 4 18 -3 28 -14 10
-12 23 -21 30 -21 10 0 15 -14 12 -33 -1 -4 5 -7 13 -5 14 3 56 -37 56 -54 0
-5 5 -6 10 -3 6 3 14 -5 20 -19 5 -14 15 -26 22 -26 12 0 38 -32 38 -45 0 -3
13 -19 30 -37 16 -17 30 -37 30 -44 0 -7 4 -14 10 -16 5 -1 11 -15 12 -30 1
-15 6 -24 10 -22 7 5 12 -18 9 -38 0 -5 4 -8 10 -8 6 0 9 -9 6 -20 -3 -11 -2
-20 2 -20 4 0 6 -28 4 -62 -2 -35 -3 -71 -4 -81 0 -9 -4 -15 -9 -12 -6 3 -7
-1 -4 -9 3 -9 1 -16 -5 -16 -6 0 -8 -7 -5 -15 4 -8 1 -15 -5 -15 -6 0 -10 -3
-9 -7 4 -13 -32 -73 -43 -73 -6 0 -8 -4 -4 -9 6 -11 -105 -125 -164 -169 -20
-15 -42 -33 -49 -40 -8 -7 -18 -9 -24 -6 -7 4 -8 2 -4 -4 4 -7 -7 -18 -25 -28
-18 -9 -41 -25 -52 -35 -12 -10 -26 -19 -33 -19 -7 0 -19 -6 -26 -12 -45 -42
-288 -151 -288 -130 0 4 -4 2 -8 -4 -4 -6 -45 -18 -92 -27 -92 -17 -319 -17
-342 0 -7 5 -24 10 -37 11 -38 2 -132 43 -124 55 3 6 1 7 -6 3 -16 -10 -103
42 -95 56 4 7 3 8 -4 4 -14 -9 -94 63 -85 77 3 5 1 7 -5 3 -13 -8 -44 33 -35
47 3 6 1 7 -5 3 -7 -4 -17 4 -24 21 -7 15 -15 30 -18 33 -12 11 -31 57 -33 77
0 12 -4 20 -8 17 -9 -5 -21 44 -14 56 4 6 1 10 -5 10 -6 0 -8 5 -5 10 3 6 0
10 -7 10 -9 0 -9 3 2 10 8 5 10 10 4 10 -6 0 -11 6 -11 13 0 7 -3 25 -7 41 -5
20 -4 26 5 20 8 -5 9 -3 3 7 -14 22 -14 131 -1 148 9 12 9 13 0 7 -8 -4 -13
-1 -13 9 0 10 5 13 13 9 9 -6 9 -4 -1 8 -7 9 -9 19 -4 22 5 3 8 17 7 31 -2 14
1 27 6 31 5 3 6 10 3 16 -4 6 0 14 7 19 9 6 10 9 2 9 -9 0 -8 9 3 35 8 19 14
37 14 40 -3 23 14 74 23 68 5 -3 7 -2 4 4 -10 16 13 84 25 77 6 -4 8 -3 5 3
-9 14 17 76 27 66 4 -4 4 0 1 9 -3 8 0 22 8 29 7 8 12 20 9 28 -3 9 0 11 8 6
8 -5 11 -4 7 2 -9 14 37 96 47 86 4 -4 4 0 1 9 -3 8 1 23 10 32 9 9 13 16 8
16 -4 0 0 7 11 15 10 7 16 18 13 23 -3 4 3 14 13 22 10 8 17 18 14 22 -3 5 7
21 23 35 15 14 21 22 13 17 -13 -7 -13 -6 0 11 8 11 24 28 35 38 11 10 14 16
8 12 -21 -10 -15 2 15 31 15 15 21 23 13 19 -9 -5 -12 -4 -7 3 4 7 14 12 22
12 8 0 12 5 9 10 -3 6 1 13 9 16 9 3 13 10 10 15 -3 5 -2 9 3 9 4 0 14 13 21
30 8 16 17 28 22 27 4 -1 8 0 7 3 -2 11 37 49 45 44 5 -3 8 -2 7 3 -3 20 2 34
11 28 6 -3 10 3 10 14 0 34 32 20 91 -39z"/>
<path d="M3876 1022 c-3 -5 1 -9 9 -9 8 0 12 4 9 9 -3 4 -7 8 -9 8 -2 0 -6 -4
-9 -8z"/>
<path d="M4578 585 c-2 -2 -57 -7 -123 -10 -66 -4 -136 -8 -155 -10 -19 -2
-69 -6 -110 -10 -74 -5 -266 -30 -325 -40 -16 -3 -55 -10 -85 -15 -93 -17 -99
-18 -201 -51 -159 -51 -197 -103 -114 -161 38 -27 208 -82 285 -94 19 -2 46
-7 60 -10 46 -11 109 -20 190 -29 30 -3 62 -8 70 -10 8 -2 51 -7 95 -10 44 -3
98 -8 120 -10 39 -4 107 -8 330 -21 273 -14 940 -3 1145 21 19 2 73 7 120 10
47 3 92 8 100 10 8 2 44 7 80 10 36 4 72 8 80 10 8 2 56 10 105 19 259 47 390
103 383 164 -2 17 -17 36 -43 54 -43 31 -198 78 -316 98 -41 7 -83 14 -94 16
-11 2 -40 7 -65 10 -25 3 -56 7 -70 9 -37 7 -164 20 -290 30 -41 3 -100 8
-130 11 -63 7 -1036 15 -1042 9z"/>
</g>
</svg>
